<?xml version="1.0" encoding="UTF-8" standalone="no"?>
<!DOCTYPE svg PUBLIC "-//W3C//DTD SVG 1.1//EN"
 "http://www.w3.org/Graphics/SVG/1.1/DTD/svg11.dtd">
<!-- Generated by graphviz version 2.50.0 (20211204.2007)
 -->
<!-- Title: G Pages: 1 -->
<svg width="288pt" height="845pt"
 viewBox="0.00 0.00 415.00 1217.00" xmlns="http://www.w3.org/2000/svg" xmlns:xlink="http://www.w3.org/1999/xlink">
<g id="graph0" class="graph" transform="scale(0.69 0.69) rotate(0) translate(4 1213)">
<title>G</title>
<polygon fill="white" stroke="transparent" points="-4,4 -4,-1213 411,-1213 411,4 -4,4"/>
<!-- 1358951698496 -->
<g id="node1" class="node">
<title>1358951698496</title>
<polygon fill="none" stroke="black" points="16,-1162.5 16,-1208.5 391,-1208.5 391,-1162.5 16,-1162.5"/>
<text text-anchor="middle" x="70" y="-1181.8" font-family="Times New Roman,serif" font-size="14.00">conv2d_4_input</text>
<polyline fill="none" stroke="black" points="124,-1162.5 124,-1208.5 "/>
<text text-anchor="middle" x="162.5" y="-1181.8" font-family="Times New Roman,serif" font-size="14.00">InputLayer</text>
<polyline fill="none" stroke="black" points="201,-1162.5 201,-1208.5 "/>
<text text-anchor="middle" x="229" y="-1193.3" font-family="Times New Roman,serif" font-size="14.00">input:</text>
<polyline fill="none" stroke="black" points="201,-1185.5 257,-1185.5 "/>
<text text-anchor="middle" x="229" y="-1170.3" font-family="Times New Roman,serif" font-size="14.00">output:</text>
<polyline fill="none" stroke="black" points="257,-1162.5 257,-1208.5 "/>
<text text-anchor="middle" x="324" y="-1193.3" font-family="Times New Roman,serif" font-size="14.00">[(None, 224, 224, 3)]</text>
<polyline fill="none" stroke="black" points="257,-1185.5 391,-1185.5 "/>
<text text-anchor="middle" x="324" y="-1170.3" font-family="Times New Roman,serif" font-size="14.00">[(None, 224, 224, 3)]</text>
</g>
<!-- 1359058046208 -->
<g id="node2" class="node">
<title>1359058046208</title>
<polygon fill="none" stroke="black" points="41,-1079.5 41,-1125.5 366,-1125.5 366,-1079.5 41,-1079.5"/>
<text text-anchor="middle" x="77.5" y="-1098.8" font-family="Times New Roman,serif" font-size="14.00">conv2d_4</text>
<polyline fill="none" stroke="black" points="114,-1079.5 114,-1125.5 "/>
<text text-anchor="middle" x="146" y="-1098.8" font-family="Times New Roman,serif" font-size="14.00">Conv2D</text>
<polyline fill="none" stroke="black" points="178,-1079.5 178,-1125.5 "/>
<text text-anchor="middle" x="206" y="-1110.3" font-family="Times New Roman,serif" font-size="14.00">input:</text>
<polyline fill="none" stroke="black" points="178,-1102.5 234,-1102.5 "/>
<text text-anchor="middle" x="206" y="-1087.3" font-family="Times New Roman,serif" font-size="14.00">output:</text>
<polyline fill="none" stroke="black" points="234,-1079.5 234,-1125.5 "/>
<text text-anchor="middle" x="300" y="-1110.3" font-family="Times New Roman,serif" font-size="14.00">(None, 224, 224, 3)</text>
<polyline fill="none" stroke="black" points="234,-1102.5 366,-1102.5 "/>
<text text-anchor="middle" x="300" y="-1087.3" font-family="Times New Roman,serif" font-size="14.00">(None, 222, 222, 16)</text>
</g>
<!-- 1358951698496&#45;&gt;1359058046208 -->
<g id="edge1" class="edge">
<title>1358951698496&#45;&gt;1359058046208</title>
<path fill="none" stroke="black" d="M203.5,-1162.37C203.5,-1154.15 203.5,-1144.66 203.5,-1135.73"/>
<polygon fill="black" stroke="black" points="207,-1135.61 203.5,-1125.61 200,-1135.61 207,-1135.61"/>
</g>
<!-- 1358950644176 -->
<g id="node3" class="node">
<title>1358950644176</title>
<polygon fill="none" stroke="black" points="0,-996.5 0,-1042.5 407,-1042.5 407,-996.5 0,-996.5"/>
<text text-anchor="middle" x="59" y="-1015.8" font-family="Times New Roman,serif" font-size="14.00">max_pooling2d_4</text>
<polyline fill="none" stroke="black" points="118,-996.5 118,-1042.5 "/>
<text text-anchor="middle" x="168.5" y="-1015.8" font-family="Times New Roman,serif" font-size="14.00">MaxPooling2D</text>
<polyline fill="none" stroke="black" points="219,-996.5 219,-1042.5 "/>
<text text-anchor="middle" x="247" y="-1027.3" font-family="Times New Roman,serif" font-size="14.00">input:</text>
<polyline fill="none" stroke="black" points="219,-1019.5 275,-1019.5 "/>
<text text-anchor="middle" x="247" y="-1004.3" font-family="Times New Roman,serif" font-size="14.00">output:</text>
<polyline fill="none" stroke="black" points="275,-996.5 275,-1042.5 "/>
<text text-anchor="middle" x="341" y="-1027.3" font-family="Times New Roman,serif" font-size="14.00">(None, 222, 222, 16)</text>
<polyline fill="none" stroke="black" points="275,-1019.5 407,-1019.5 "/>
<text text-anchor="middle" x="341" y="-1004.3" font-family="Times New Roman,serif" font-size="14.00">(None, 111, 111, 16)</text>
</g>
<!-- 1359058046208&#45;&gt;1358950644176 -->
<g id="edge2" class="edge">
<title>1359058046208&#45;&gt;1358950644176</title>
<path fill="none" stroke="black" d="M203.5,-1079.37C203.5,-1071.15 203.5,-1061.66 203.5,-1052.73"/>
<polygon fill="black" stroke="black" points="207,-1052.61 203.5,-1042.61 200,-1052.61 207,-1052.61"/>
</g>
<!-- 1359060566368 -->
<g id="node4" class="node">
<title>1359060566368</title>
<polygon fill="none" stroke="black" points="41,-913.5 41,-959.5 366,-959.5 366,-913.5 41,-913.5"/>
<text text-anchor="middle" x="77.5" y="-932.8" font-family="Times New Roman,serif" font-size="14.00">conv2d_5</text>
<polyline fill="none" stroke="black" points="114,-913.5 114,-959.5 "/>
<text text-anchor="middle" x="146" y="-932.8" font-family="Times New Roman,serif" font-size="14.00">Conv2D</text>
<polyline fill="none" stroke="black" points="178,-913.5 178,-959.5 "/>
<text text-anchor="middle" x="206" y="-944.3" font-family="Times New Roman,serif" font-size="14.00">input:</text>
<polyline fill="none" stroke="black" points="178,-936.5 234,-936.5 "/>
<text text-anchor="middle" x="206" y="-921.3" font-family="Times New Roman,serif" font-size="14.00">output:</text>
<polyline fill="none" stroke="black" points="234,-913.5 234,-959.5 "/>
<text text-anchor="middle" x="300" y="-944.3" font-family="Times New Roman,serif" font-size="14.00">(None, 111, 111, 16)</text>
<polyline fill="none" stroke="black" points="234,-936.5 366,-936.5 "/>
<text text-anchor="middle" x="300" y="-921.3" font-family="Times New Roman,serif" font-size="14.00">(None, 109, 109, 32)</text>
</g>
<!-- 1358950644176&#45;&gt;1359060566368 -->
<g id="edge3" class="edge">
<title>1358950644176&#45;&gt;1359060566368</title>
<path fill="none" stroke="black" d="M203.5,-996.37C203.5,-988.15 203.5,-978.66 203.5,-969.73"/>
<polygon fill="black" stroke="black" points="207,-969.61 203.5,-959.61 200,-969.61 207,-969.61"/>
</g>
<!-- 1354028026512 -->
<g id="node5" class="node">
<title>1354028026512</title>
<polygon fill="none" stroke="black" points="0,-830.5 0,-876.5 407,-876.5 407,-830.5 0,-830.5"/>
<text text-anchor="middle" x="59" y="-849.8" font-family="Times New Roman,serif" font-size="14.00">max_pooling2d_5</text>
<polyline fill="none" stroke="black" points="118,-830.5 118,-876.5 "/>
<text text-anchor="middle" x="168.5" y="-849.8" font-family="Times New Roman,serif" font-size="14.00">MaxPooling2D</text>
<polyline fill="none" stroke="black" points="219,-830.5 219,-876.5 "/>
<text text-anchor="middle" x="247" y="-861.3" font-family="Times New Roman,serif" font-size="14.00">input:</text>
<polyline fill="none" stroke="black" points="219,-853.5 275,-853.5 "/>
<text text-anchor="middle" x="247" y="-838.3" font-family="Times New Roman,serif" font-size="14.00">output:</text>
<polyline fill="none" stroke="black" points="275,-830.5 275,-876.5 "/>
<text text-anchor="middle" x="341" y="-861.3" font-family="Times New Roman,serif" font-size="14.00">(None, 109, 109, 32)</text>
<polyline fill="none" stroke="black" points="275,-853.5 407,-853.5 "/>
<text text-anchor="middle" x="341" y="-838.3" font-family="Times New Roman,serif" font-size="14.00">(None, 54, 54, 32)</text>
</g>
<!-- 1359060566368&#45;&gt;1354028026512 -->
<g id="edge4" class="edge">
<title>1359060566368&#45;&gt;1354028026512</title>
<path fill="none" stroke="black" d="M203.5,-913.37C203.5,-905.15 203.5,-895.66 203.5,-886.73"/>
<polygon fill="black" stroke="black" points="207,-886.61 203.5,-876.61 200,-886.61 207,-886.61"/>
</g>
<!-- 1359060580048 -->
<g id="node6" class="node">
<title>1359060580048</title>
<polygon fill="none" stroke="black" points="47.5,-747.5 47.5,-793.5 359.5,-793.5 359.5,-747.5 47.5,-747.5"/>
<text text-anchor="middle" x="84" y="-766.8" font-family="Times New Roman,serif" font-size="14.00">conv2d_6</text>
<polyline fill="none" stroke="black" points="120.5,-747.5 120.5,-793.5 "/>
<text text-anchor="middle" x="152.5" y="-766.8" font-family="Times New Roman,serif" font-size="14.00">Conv2D</text>
<polyline fill="none" stroke="black" points="184.5,-747.5 184.5,-793.5 "/>
<text text-anchor="middle" x="212.5" y="-778.3" font-family="Times New Roman,serif" font-size="14.00">input:</text>
<polyline fill="none" stroke="black" points="184.5,-770.5 240.5,-770.5 "/>
<text text-anchor="middle" x="212.5" y="-755.3" font-family="Times New Roman,serif" font-size="14.00">output:</text>
<polyline fill="none" stroke="black" points="240.5,-747.5 240.5,-793.5 "/>
<text text-anchor="middle" x="300" y="-778.3" font-family="Times New Roman,serif" font-size="14.00">(None, 54, 54, 32)</text>
<polyline fill="none" stroke="black" points="240.5,-770.5 359.5,-770.5 "/>
<text text-anchor="middle" x="300" y="-755.3" font-family="Times New Roman,serif" font-size="14.00">(None, 52, 52, 64)</text>
</g>
<!-- 1354028026512&#45;&gt;1359060580048 -->
<g id="edge5" class="edge">
<title>1354028026512&#45;&gt;1359060580048</title>
<path fill="none" stroke="black" d="M203.5,-830.37C203.5,-822.15 203.5,-812.66 203.5,-803.73"/>
<polygon fill="black" stroke="black" points="207,-803.61 203.5,-793.61 200,-803.61 207,-803.61"/>
</g>
<!-- 1359055175632 -->
<g id="node7" class="node">
<title>1359055175632</title>
<polygon fill="none" stroke="black" points="6.5,-664.5 6.5,-710.5 400.5,-710.5 400.5,-664.5 6.5,-664.5"/>
<text text-anchor="middle" x="65.5" y="-683.8" font-family="Times New Roman,serif" font-size="14.00">max_pooling2d_6</text>
<polyline fill="none" stroke="black" points="124.5,-664.5 124.5,-710.5 "/>
<text text-anchor="middle" x="175" y="-683.8" font-family="Times New Roman,serif" font-size="14.00">MaxPooling2D</text>
<polyline fill="none" stroke="black" points="225.5,-664.5 225.5,-710.5 "/>
<text text-anchor="middle" x="253.5" y="-695.3" font-family="Times New Roman,serif" font-size="14.00">input:</text>
<polyline fill="none" stroke="black" points="225.5,-687.5 281.5,-687.5 "/>
<text text-anchor="middle" x="253.5" y="-672.3" font-family="Times New Roman,serif" font-size="14.00">output:</text>
<polyline fill="none" stroke="black" points="281.5,-664.5 281.5,-710.5 "/>
<text text-anchor="middle" x="341" y="-695.3" font-family="Times New Roman,serif" font-size="14.00">(None, 52, 52, 64)</text>
<polyline fill="none" stroke="black" points="281.5,-687.5 400.5,-687.5 "/>
<text text-anchor="middle" x="341" y="-672.3" font-family="Times New Roman,serif" font-size="14.00">(None, 26, 26, 64)</text>
</g>
<!-- 1359060580048&#45;&gt;1359055175632 -->
<g id="edge6" class="edge">
<title>1359060580048&#45;&gt;1359055175632</title>
<path fill="none" stroke="black" d="M203.5,-747.37C203.5,-739.15 203.5,-729.66 203.5,-720.73"/>
<polygon fill="black" stroke="black" points="207,-720.61 203.5,-710.61 200,-720.61 207,-720.61"/>
</g>
<!-- 1359060337808 -->
<g id="node8" class="node">
<title>1359060337808</title>
<polygon fill="none" stroke="black" points="47.5,-581.5 47.5,-627.5 359.5,-627.5 359.5,-581.5 47.5,-581.5"/>
<text text-anchor="middle" x="84" y="-600.8" font-family="Times New Roman,serif" font-size="14.00">conv2d_7</text>
<polyline fill="none" stroke="black" points="120.5,-581.5 120.5,-627.5 "/>
<text text-anchor="middle" x="152.5" y="-600.8" font-family="Times New Roman,serif" font-size="14.00">Conv2D</text>
<polyline fill="none" stroke="black" points="184.5,-581.5 184.5,-627.5 "/>
<text text-anchor="middle" x="212.5" y="-612.3" font-family="Times New Roman,serif" font-size="14.00">input:</text>
<polyline fill="none" stroke="black" points="184.5,-604.5 240.5,-604.5 "/>
<text text-anchor="middle" x="212.5" y="-589.3" font-family="Times New Roman,serif" font-size="14.00">output:</text>
<polyline fill="none" stroke="black" points="240.5,-581.5 240.5,-627.5 "/>
<text text-anchor="middle" x="300" y="-612.3" font-family="Times New Roman,serif" font-size="14.00">(None, 26, 26, 64)</text>
<polyline fill="none" stroke="black" points="240.5,-604.5 359.5,-604.5 "/>
<text text-anchor="middle" x="300" y="-589.3" font-family="Times New Roman,serif" font-size="14.00">(None, 24, 24, 64)</text>
</g>
<!-- 1359055175632&#45;&gt;1359060337808 -->
<g id="edge7" class="edge">
<title>1359055175632&#45;&gt;1359060337808</title>
<path fill="none" stroke="black" d="M203.5,-664.37C203.5,-656.15 203.5,-646.66 203.5,-637.73"/>
<polygon fill="black" stroke="black" points="207,-637.61 203.5,-627.61 200,-637.61 207,-637.61"/>
</g>
<!-- 1359060337616 -->
<g id="node9" class="node">
<title>1359060337616</title>
<polygon fill="none" stroke="black" points="6.5,-498.5 6.5,-544.5 400.5,-544.5 400.5,-498.5 6.5,-498.5"/>
<text text-anchor="middle" x="65.5" y="-517.8" font-family="Times New Roman,serif" font-size="14.00">max_pooling2d_7</text>
<polyline fill="none" stroke="black" points="124.5,-498.5 124.5,-544.5 "/>
<text text-anchor="middle" x="175" y="-517.8" font-family="Times New Roman,serif" font-size="14.00">MaxPooling2D</text>
<polyline fill="none" stroke="black" points="225.5,-498.5 225.5,-544.5 "/>
<text text-anchor="middle" x="253.5" y="-529.3" font-family="Times New Roman,serif" font-size="14.00">input:</text>
<polyline fill="none" stroke="black" points="225.5,-521.5 281.5,-521.5 "/>
<text text-anchor="middle" x="253.5" y="-506.3" font-family="Times New Roman,serif" font-size="14.00">output:</text>
<polyline fill="none" stroke="black" points="281.5,-498.5 281.5,-544.5 "/>
<text text-anchor="middle" x="341" y="-529.3" font-family="Times New Roman,serif" font-size="14.00">(None, 24, 24, 64)</text>
<polyline fill="none" stroke="black" points="281.5,-521.5 400.5,-521.5 "/>
<text text-anchor="middle" x="341" y="-506.3" font-family="Times New Roman,serif" font-size="14.00">(None, 12, 12, 64)</text>
</g>
<!-- 1359060337808&#45;&gt;1359060337616 -->
<g id="edge8" class="edge">
<title>1359060337808&#45;&gt;1359060337616</title>
<path fill="none" stroke="black" d="M203.5,-581.37C203.5,-573.15 203.5,-563.66 203.5,-554.73"/>
<polygon fill="black" stroke="black" points="207,-554.61 203.5,-544.61 200,-554.61 207,-554.61"/>
</g>
<!-- 1359060564624 -->
<g id="node10" class="node">
<title>1359060564624</title>
<polygon fill="none" stroke="black" points="56.5,-415.5 56.5,-461.5 350.5,-461.5 350.5,-415.5 56.5,-415.5"/>
<text text-anchor="middle" x="89" y="-434.8" font-family="Times New Roman,serif" font-size="14.00">flatten_1</text>
<polyline fill="none" stroke="black" points="121.5,-415.5 121.5,-461.5 "/>
<text text-anchor="middle" x="148.5" y="-434.8" font-family="Times New Roman,serif" font-size="14.00">Flatten</text>
<polyline fill="none" stroke="black" points="175.5,-415.5 175.5,-461.5 "/>
<text text-anchor="middle" x="203.5" y="-446.3" font-family="Times New Roman,serif" font-size="14.00">input:</text>
<polyline fill="none" stroke="black" points="175.5,-438.5 231.5,-438.5 "/>
<text text-anchor="middle" x="203.5" y="-423.3" font-family="Times New Roman,serif" font-size="14.00">output:</text>
<polyline fill="none" stroke="black" points="231.5,-415.5 231.5,-461.5 "/>
<text text-anchor="middle" x="291" y="-446.3" font-family="Times New Roman,serif" font-size="14.00">(None, 12, 12, 64)</text>
<polyline fill="none" stroke="black" points="231.5,-438.5 350.5,-438.5 "/>
<text text-anchor="middle" x="291" y="-423.3" font-family="Times New Roman,serif" font-size="14.00">(None, 9216)</text>
</g>
<!-- 1359060337616&#45;&gt;1359060564624 -->
<g id="edge9" class="edge">
<title>1359060337616&#45;&gt;1359060564624</title>
<path fill="none" stroke="black" d="M203.5,-498.37C203.5,-490.15 203.5,-480.66 203.5,-471.73"/>
<polygon fill="black" stroke="black" points="207,-471.61 203.5,-461.61 200,-471.61 207,-471.61"/>
</g>
<!-- 1359060565200 -->
<g id="node11" class="node">
<title>1359060565200</title>
<polygon fill="none" stroke="black" points="73.5,-332.5 73.5,-378.5 333.5,-378.5 333.5,-332.5 73.5,-332.5"/>
<text text-anchor="middle" x="105" y="-351.8" font-family="Times New Roman,serif" font-size="14.00">dense_2</text>
<polyline fill="none" stroke="black" points="136.5,-332.5 136.5,-378.5 "/>
<text text-anchor="middle" x="162" y="-351.8" font-family="Times New Roman,serif" font-size="14.00">Dense</text>
<polyline fill="none" stroke="black" points="187.5,-332.5 187.5,-378.5 "/>
<text text-anchor="middle" x="215.5" y="-363.3" font-family="Times New Roman,serif" font-size="14.00">input:</text>
<polyline fill="none" stroke="black" points="187.5,-355.5 243.5,-355.5 "/>
<text text-anchor="middle" x="215.5" y="-340.3" font-family="Times New Roman,serif" font-size="14.00">output:</text>
<polyline fill="none" stroke="black" points="243.5,-332.5 243.5,-378.5 "/>
<text text-anchor="middle" x="288.5" y="-363.3" font-family="Times New Roman,serif" font-size="14.00">(None, 9216)</text>
<polyline fill="none" stroke="black" points="243.5,-355.5 333.5,-355.5 "/>
<text text-anchor="middle" x="288.5" y="-340.3" font-family="Times New Roman,serif" font-size="14.00">(None, 224)</text>
</g>
<!-- 1359060564624&#45;&gt;1359060565200 -->
<g id="edge10" class="edge">
<title>1359060564624&#45;&gt;1359060565200</title>
<path fill="none" stroke="black" d="M203.5,-415.37C203.5,-407.15 203.5,-397.66 203.5,-388.73"/>
<polygon fill="black" stroke="black" points="207,-388.61 203.5,-378.61 200,-388.61 207,-388.61"/>
</g>
<!-- 1354028212528 -->
<g id="node12" class="node">
<title>1354028212528</title>
<polygon fill="none" stroke="black" points="55,-249.5 55,-295.5 352,-295.5 352,-249.5 55,-249.5"/>
<text text-anchor="middle" x="97" y="-268.8" font-family="Times New Roman,serif" font-size="14.00">activation_2</text>
<polyline fill="none" stroke="black" points="139,-249.5 139,-295.5 "/>
<text text-anchor="middle" x="176" y="-268.8" font-family="Times New Roman,serif" font-size="14.00">Activation</text>
<polyline fill="none" stroke="black" points="213,-249.5 213,-295.5 "/>
<text text-anchor="middle" x="241" y="-280.3" font-family="Times New Roman,serif" font-size="14.00">input:</text>
<polyline fill="none" stroke="black" points="213,-272.5 269,-272.5 "/>
<text text-anchor="middle" x="241" y="-257.3" font-family="Times New Roman,serif" font-size="14.00">output:</text>
<polyline fill="none" stroke="black" points="269,-249.5 269,-295.5 "/>
<text text-anchor="middle" x="310.5" y="-280.3" font-family="Times New Roman,serif" font-size="14.00">(None, 224)</text>
<polyline fill="none" stroke="black" points="269,-272.5 352,-272.5 "/>
<text text-anchor="middle" x="310.5" y="-257.3" font-family="Times New Roman,serif" font-size="14.00">(None, 224)</text>
</g>
<!-- 1359060565200&#45;&gt;1354028212528 -->
<g id="edge11" class="edge">
<title>1359060565200&#45;&gt;1354028212528</title>
<path fill="none" stroke="black" d="M203.5,-332.37C203.5,-324.15 203.5,-314.66 203.5,-305.73"/>
<polygon fill="black" stroke="black" points="207,-305.61 203.5,-295.61 200,-305.61 207,-305.61"/>
</g>
<!-- 1359055301744 -->
<g id="node13" class="node">
<title>1359055301744</title>
<polygon fill="none" stroke="black" points="64,-166.5 64,-212.5 343,-212.5 343,-166.5 64,-166.5"/>
<text text-anchor="middle" x="102" y="-185.8" font-family="Times New Roman,serif" font-size="14.00">dropout_1</text>
<polyline fill="none" stroke="black" points="140,-166.5 140,-212.5 "/>
<text text-anchor="middle" x="172" y="-185.8" font-family="Times New Roman,serif" font-size="14.00">Dropout</text>
<polyline fill="none" stroke="black" points="204,-166.5 204,-212.5 "/>
<text text-anchor="middle" x="232" y="-197.3" font-family="Times New Roman,serif" font-size="14.00">input:</text>
<polyline fill="none" stroke="black" points="204,-189.5 260,-189.5 "/>
<text text-anchor="middle" x="232" y="-174.3" font-family="Times New Roman,serif" font-size="14.00">output:</text>
<polyline fill="none" stroke="black" points="260,-166.5 260,-212.5 "/>
<text text-anchor="middle" x="301.5" y="-197.3" font-family="Times New Roman,serif" font-size="14.00">(None, 224)</text>
<polyline fill="none" stroke="black" points="260,-189.5 343,-189.5 "/>
<text text-anchor="middle" x="301.5" y="-174.3" font-family="Times New Roman,serif" font-size="14.00">(None, 224)</text>
</g>
<!-- 1354028212528&#45;&gt;1359055301744 -->
<g id="edge12" class="edge">
<title>1354028212528&#45;&gt;1359055301744</title>
<path fill="none" stroke="black" d="M203.5,-249.37C203.5,-241.15 203.5,-231.66 203.5,-222.73"/>
<polygon fill="black" stroke="black" points="207,-222.61 203.5,-212.61 200,-222.61 207,-222.61"/>
</g>
<!-- 1359057972528 -->
<g id="node14" class="node">
<title>1359057972528</title>
<polygon fill="none" stroke="black" points="77,-83.5 77,-129.5 330,-129.5 330,-83.5 77,-83.5"/>
<text text-anchor="middle" x="108.5" y="-102.8" font-family="Times New Roman,serif" font-size="14.00">dense_3</text>
<polyline fill="none" stroke="black" points="140,-83.5 140,-129.5 "/>
<text text-anchor="middle" x="165.5" y="-102.8" font-family="Times New Roman,serif" font-size="14.00">Dense</text>
<polyline fill="none" stroke="black" points="191,-83.5 191,-129.5 "/>
<text text-anchor="middle" x="219" y="-114.3" font-family="Times New Roman,serif" font-size="14.00">input:</text>
<polyline fill="none" stroke="black" points="191,-106.5 247,-106.5 "/>
<text text-anchor="middle" x="219" y="-91.3" font-family="Times New Roman,serif" font-size="14.00">output:</text>
<polyline fill="none" stroke="black" points="247,-83.5 247,-129.5 "/>
<text text-anchor="middle" x="288.5" y="-114.3" font-family="Times New Roman,serif" font-size="14.00">(None, 224)</text>
<polyline fill="none" stroke="black" points="247,-106.5 330,-106.5 "/>
<text text-anchor="middle" x="288.5" y="-91.3" font-family="Times New Roman,serif" font-size="14.00">(None, 2)</text>
</g>
<!-- 1359055301744&#45;&gt;1359057972528 -->
<g id="edge13" class="edge">
<title>1359055301744&#45;&gt;1359057972528</title>
<path fill="none" stroke="black" d="M203.5,-166.37C203.5,-158.15 203.5,-148.66 203.5,-139.73"/>
<polygon fill="black" stroke="black" points="207,-139.61 203.5,-129.61 200,-139.61 207,-139.61"/>
</g>
<!-- 1352450590416 -->
<g id="node15" class="node">
<title>1352450590416</title>
<polygon fill="none" stroke="black" points="61.5,-0.5 61.5,-46.5 345.5,-46.5 345.5,-0.5 61.5,-0.5"/>
<text text-anchor="middle" x="103.5" y="-19.8" font-family="Times New Roman,serif" font-size="14.00">activation_3</text>
<polyline fill="none" stroke="black" points="145.5,-0.5 145.5,-46.5 "/>
<text text-anchor="middle" x="182.5" y="-19.8" font-family="Times New Roman,serif" font-size="14.00">Activation</text>
<polyline fill="none" stroke="black" points="219.5,-0.5 219.5,-46.5 "/>
<text text-anchor="middle" x="247.5" y="-31.3" font-family="Times New Roman,serif" font-size="14.00">input:</text>
<polyline fill="none" stroke="black" points="219.5,-23.5 275.5,-23.5 "/>
<text text-anchor="middle" x="247.5" y="-8.3" font-family="Times New Roman,serif" font-size="14.00">output:</text>
<polyline fill="none" stroke="black" points="275.5,-0.5 275.5,-46.5 "/>
<text text-anchor="middle" x="310.5" y="-31.3" font-family="Times New Roman,serif" font-size="14.00">(None, 2)</text>
<polyline fill="none" stroke="black" points="275.5,-23.5 345.5,-23.5 "/>
<text text-anchor="middle" x="310.5" y="-8.3" font-family="Times New Roman,serif" font-size="14.00">(None, 2)</text>
</g>
<!-- 1359057972528&#45;&gt;1352450590416 -->
<g id="edge14" class="edge">
<title>1359057972528&#45;&gt;1352450590416</title>
<path fill="none" stroke="black" d="M203.5,-83.37C203.5,-75.15 203.5,-65.66 203.5,-56.73"/>
<polygon fill="black" stroke="black" points="207,-56.61 203.5,-46.61 200,-56.61 207,-56.61"/>
</g>
</g>
</svg>
