<?xml version="1.0" encoding="UTF-8" standalone="no"?>
<!DOCTYPE svg PUBLIC "-//W3C//DTD SVG 1.1//EN"
 "http://www.w3.org/Graphics/SVG/1.1/DTD/svg11.dtd">
<!-- Generated by graphviz version 2.50.0 (20211204.2007)
 -->
<!-- Title: G Pages: 1 -->
<svg width="283pt" height="1076pt"
 viewBox="0.00 0.00 408.00 1549.00" xmlns="http://www.w3.org/2000/svg" xmlns:xlink="http://www.w3.org/1999/xlink">
<g id="graph0" class="graph" transform="scale(0.69 0.69) rotate(0) translate(4 1545)">
<title>G</title>
<polygon fill="white" stroke="transparent" points="-4,4 -4,-1545 404,-1545 404,4 -4,4"/>
<!-- 2423640262448 -->
<g id="node1" class="node">
<title>2423640262448</title>
<polygon fill="none" stroke="black" points="19.5,-1494.5 19.5,-1540.5 380.5,-1540.5 380.5,-1494.5 19.5,-1494.5"/>
<text text-anchor="middle" x="66.5" y="-1513.8" font-family="Times New Roman,serif" font-size="14.00">conv2d_input</text>
<polyline fill="none" stroke="black" points="113.5,-1494.5 113.5,-1540.5 "/>
<text text-anchor="middle" x="152" y="-1513.8" font-family="Times New Roman,serif" font-size="14.00">InputLayer</text>
<polyline fill="none" stroke="black" points="190.5,-1494.5 190.5,-1540.5 "/>
<text text-anchor="middle" x="218.5" y="-1525.3" font-family="Times New Roman,serif" font-size="14.00">input:</text>
<polyline fill="none" stroke="black" points="190.5,-1517.5 246.5,-1517.5 "/>
<text text-anchor="middle" x="218.5" y="-1502.3" font-family="Times New Roman,serif" font-size="14.00">output:</text>
<polyline fill="none" stroke="black" points="246.5,-1494.5 246.5,-1540.5 "/>
<text text-anchor="middle" x="313.5" y="-1525.3" font-family="Times New Roman,serif" font-size="14.00">[(None, 224, 224, 1)]</text>
<polyline fill="none" stroke="black" points="246.5,-1517.5 380.5,-1517.5 "/>
<text text-anchor="middle" x="313.5" y="-1502.3" font-family="Times New Roman,serif" font-size="14.00">[(None, 224, 224, 1)]</text>
</g>
<!-- 2423640049792 -->
<g id="node2" class="node">
<title>2423640049792</title>
<polygon fill="none" stroke="black" points="44.5,-1411.5 44.5,-1457.5 355.5,-1457.5 355.5,-1411.5 44.5,-1411.5"/>
<text text-anchor="middle" x="74" y="-1430.8" font-family="Times New Roman,serif" font-size="14.00">conv2d</text>
<polyline fill="none" stroke="black" points="103.5,-1411.5 103.5,-1457.5 "/>
<text text-anchor="middle" x="135.5" y="-1430.8" font-family="Times New Roman,serif" font-size="14.00">Conv2D</text>
<polyline fill="none" stroke="black" points="167.5,-1411.5 167.5,-1457.5 "/>
<text text-anchor="middle" x="195.5" y="-1442.3" font-family="Times New Roman,serif" font-size="14.00">input:</text>
<polyline fill="none" stroke="black" points="167.5,-1434.5 223.5,-1434.5 "/>
<text text-anchor="middle" x="195.5" y="-1419.3" font-family="Times New Roman,serif" font-size="14.00">output:</text>
<polyline fill="none" stroke="black" points="223.5,-1411.5 223.5,-1457.5 "/>
<text text-anchor="middle" x="289.5" y="-1442.3" font-family="Times New Roman,serif" font-size="14.00">(None, 224, 224, 1)</text>
<polyline fill="none" stroke="black" points="223.5,-1434.5 355.5,-1434.5 "/>
<text text-anchor="middle" x="289.5" y="-1419.3" font-family="Times New Roman,serif" font-size="14.00">(None, 224, 224, 64)</text>
</g>
<!-- 2423640262448&#45;&gt;2423640049792 -->
<g id="edge1" class="edge">
<title>2423640262448&#45;&gt;2423640049792</title>
<path fill="none" stroke="black" d="M200,-1494.37C200,-1486.15 200,-1476.66 200,-1467.73"/>
<polygon fill="black" stroke="black" points="203.5,-1467.61 200,-1457.61 196.5,-1467.61 203.5,-1467.61"/>
</g>
<!-- 2423640049984 -->
<g id="node3" class="node">
<title>2423640049984</title>
<polygon fill="none" stroke="black" points="37.5,-1328.5 37.5,-1374.5 362.5,-1374.5 362.5,-1328.5 37.5,-1328.5"/>
<text text-anchor="middle" x="74" y="-1347.8" font-family="Times New Roman,serif" font-size="14.00">conv2d_1</text>
<polyline fill="none" stroke="black" points="110.5,-1328.5 110.5,-1374.5 "/>
<text text-anchor="middle" x="142.5" y="-1347.8" font-family="Times New Roman,serif" font-size="14.00">Conv2D</text>
<polyline fill="none" stroke="black" points="174.5,-1328.5 174.5,-1374.5 "/>
<text text-anchor="middle" x="202.5" y="-1359.3" font-family="Times New Roman,serif" font-size="14.00">input:</text>
<polyline fill="none" stroke="black" points="174.5,-1351.5 230.5,-1351.5 "/>
<text text-anchor="middle" x="202.5" y="-1336.3" font-family="Times New Roman,serif" font-size="14.00">output:</text>
<polyline fill="none" stroke="black" points="230.5,-1328.5 230.5,-1374.5 "/>
<text text-anchor="middle" x="296.5" y="-1359.3" font-family="Times New Roman,serif" font-size="14.00">(None, 224, 224, 64)</text>
<polyline fill="none" stroke="black" points="230.5,-1351.5 362.5,-1351.5 "/>
<text text-anchor="middle" x="296.5" y="-1336.3" font-family="Times New Roman,serif" font-size="14.00">(None, 112, 112, 64)</text>
</g>
<!-- 2423640049792&#45;&gt;2423640049984 -->
<g id="edge2" class="edge">
<title>2423640049792&#45;&gt;2423640049984</title>
<path fill="none" stroke="black" d="M200,-1411.37C200,-1403.15 200,-1393.66 200,-1384.73"/>
<polygon fill="black" stroke="black" points="203.5,-1384.61 200,-1374.61 196.5,-1384.61 203.5,-1384.61"/>
</g>
<!-- 2423640353568 -->
<g id="node4" class="node">
<title>2423640353568</title>
<polygon fill="none" stroke="black" points="3.5,-1245.5 3.5,-1291.5 396.5,-1291.5 396.5,-1245.5 3.5,-1245.5"/>
<text text-anchor="middle" x="55.5" y="-1264.8" font-family="Times New Roman,serif" font-size="14.00">max_pooling2d</text>
<polyline fill="none" stroke="black" points="107.5,-1245.5 107.5,-1291.5 "/>
<text text-anchor="middle" x="158" y="-1264.8" font-family="Times New Roman,serif" font-size="14.00">MaxPooling2D</text>
<polyline fill="none" stroke="black" points="208.5,-1245.5 208.5,-1291.5 "/>
<text text-anchor="middle" x="236.5" y="-1276.3" font-family="Times New Roman,serif" font-size="14.00">input:</text>
<polyline fill="none" stroke="black" points="208.5,-1268.5 264.5,-1268.5 "/>
<text text-anchor="middle" x="236.5" y="-1253.3" font-family="Times New Roman,serif" font-size="14.00">output:</text>
<polyline fill="none" stroke="black" points="264.5,-1245.5 264.5,-1291.5 "/>
<text text-anchor="middle" x="330.5" y="-1276.3" font-family="Times New Roman,serif" font-size="14.00">(None, 112, 112, 64)</text>
<polyline fill="none" stroke="black" points="264.5,-1268.5 396.5,-1268.5 "/>
<text text-anchor="middle" x="330.5" y="-1253.3" font-family="Times New Roman,serif" font-size="14.00">(None, 56, 56, 64)</text>
</g>
<!-- 2423640049984&#45;&gt;2423640353568 -->
<g id="edge3" class="edge">
<title>2423640049984&#45;&gt;2423640353568</title>
<path fill="none" stroke="black" d="M200,-1328.37C200,-1320.15 200,-1310.66 200,-1301.73"/>
<polygon fill="black" stroke="black" points="203.5,-1301.61 200,-1291.61 196.5,-1301.61 203.5,-1301.61"/>
</g>
<!-- 2423744801616 -->
<g id="node5" class="node">
<title>2423744801616</title>
<polygon fill="none" stroke="black" points="41,-1162.5 41,-1208.5 359,-1208.5 359,-1162.5 41,-1162.5"/>
<text text-anchor="middle" x="77.5" y="-1181.8" font-family="Times New Roman,serif" font-size="14.00">conv2d_2</text>
<polyline fill="none" stroke="black" points="114,-1162.5 114,-1208.5 "/>
<text text-anchor="middle" x="146" y="-1181.8" font-family="Times New Roman,serif" font-size="14.00">Conv2D</text>
<polyline fill="none" stroke="black" points="178,-1162.5 178,-1208.5 "/>
<text text-anchor="middle" x="206" y="-1193.3" font-family="Times New Roman,serif" font-size="14.00">input:</text>
<polyline fill="none" stroke="black" points="178,-1185.5 234,-1185.5 "/>
<text text-anchor="middle" x="206" y="-1170.3" font-family="Times New Roman,serif" font-size="14.00">output:</text>
<polyline fill="none" stroke="black" points="234,-1162.5 234,-1208.5 "/>
<text text-anchor="middle" x="296.5" y="-1193.3" font-family="Times New Roman,serif" font-size="14.00">(None, 56, 56, 64)</text>
<polyline fill="none" stroke="black" points="234,-1185.5 359,-1185.5 "/>
<text text-anchor="middle" x="296.5" y="-1170.3" font-family="Times New Roman,serif" font-size="14.00">(None, 56, 56, 128)</text>
</g>
<!-- 2423640353568&#45;&gt;2423744801616 -->
<g id="edge4" class="edge">
<title>2423640353568&#45;&gt;2423744801616</title>
<path fill="none" stroke="black" d="M200,-1245.37C200,-1237.15 200,-1227.66 200,-1218.73"/>
<polygon fill="black" stroke="black" points="203.5,-1218.61 200,-1208.61 196.5,-1218.61 203.5,-1218.61"/>
</g>
<!-- 2423744961120 -->
<g id="node6" class="node">
<title>2423744961120</title>
<polygon fill="none" stroke="black" points="41,-1079.5 41,-1125.5 359,-1125.5 359,-1079.5 41,-1079.5"/>
<text text-anchor="middle" x="77.5" y="-1098.8" font-family="Times New Roman,serif" font-size="14.00">conv2d_3</text>
<polyline fill="none" stroke="black" points="114,-1079.5 114,-1125.5 "/>
<text text-anchor="middle" x="146" y="-1098.8" font-family="Times New Roman,serif" font-size="14.00">Conv2D</text>
<polyline fill="none" stroke="black" points="178,-1079.5 178,-1125.5 "/>
<text text-anchor="middle" x="206" y="-1110.3" font-family="Times New Roman,serif" font-size="14.00">input:</text>
<polyline fill="none" stroke="black" points="178,-1102.5 234,-1102.5 "/>
<text text-anchor="middle" x="206" y="-1087.3" font-family="Times New Roman,serif" font-size="14.00">output:</text>
<polyline fill="none" stroke="black" points="234,-1079.5 234,-1125.5 "/>
<text text-anchor="middle" x="296.5" y="-1110.3" font-family="Times New Roman,serif" font-size="14.00">(None, 56, 56, 128)</text>
<polyline fill="none" stroke="black" points="234,-1102.5 359,-1102.5 "/>
<text text-anchor="middle" x="296.5" y="-1087.3" font-family="Times New Roman,serif" font-size="14.00">(None, 56, 56, 128)</text>
</g>
<!-- 2423744801616&#45;&gt;2423744961120 -->
<g id="edge5" class="edge">
<title>2423744801616&#45;&gt;2423744961120</title>
<path fill="none" stroke="black" d="M200,-1162.37C200,-1154.15 200,-1144.66 200,-1135.73"/>
<polygon fill="black" stroke="black" points="203.5,-1135.61 200,-1125.61 196.5,-1135.61 203.5,-1135.61"/>
</g>
<!-- 2423744962176 -->
<g id="node7" class="node">
<title>2423744962176</title>
<polygon fill="none" stroke="black" points="0,-996.5 0,-1042.5 400,-1042.5 400,-996.5 0,-996.5"/>
<text text-anchor="middle" x="59" y="-1015.8" font-family="Times New Roman,serif" font-size="14.00">max_pooling2d_1</text>
<polyline fill="none" stroke="black" points="118,-996.5 118,-1042.5 "/>
<text text-anchor="middle" x="168.5" y="-1015.8" font-family="Times New Roman,serif" font-size="14.00">MaxPooling2D</text>
<polyline fill="none" stroke="black" points="219,-996.5 219,-1042.5 "/>
<text text-anchor="middle" x="247" y="-1027.3" font-family="Times New Roman,serif" font-size="14.00">input:</text>
<polyline fill="none" stroke="black" points="219,-1019.5 275,-1019.5 "/>
<text text-anchor="middle" x="247" y="-1004.3" font-family="Times New Roman,serif" font-size="14.00">output:</text>
<polyline fill="none" stroke="black" points="275,-996.5 275,-1042.5 "/>
<text text-anchor="middle" x="337.5" y="-1027.3" font-family="Times New Roman,serif" font-size="14.00">(None, 56, 56, 128)</text>
<polyline fill="none" stroke="black" points="275,-1019.5 400,-1019.5 "/>
<text text-anchor="middle" x="337.5" y="-1004.3" font-family="Times New Roman,serif" font-size="14.00">(None, 28, 28, 128)</text>
</g>
<!-- 2423744961120&#45;&gt;2423744962176 -->
<g id="edge6" class="edge">
<title>2423744961120&#45;&gt;2423744962176</title>
<path fill="none" stroke="black" d="M200,-1079.37C200,-1071.15 200,-1061.66 200,-1052.73"/>
<polygon fill="black" stroke="black" points="203.5,-1052.61 200,-1042.61 196.5,-1052.61 203.5,-1052.61"/>
</g>
<!-- 2423745028448 -->
<g id="node8" class="node">
<title>2423745028448</title>
<polygon fill="none" stroke="black" points="41,-913.5 41,-959.5 359,-959.5 359,-913.5 41,-913.5"/>
<text text-anchor="middle" x="77.5" y="-932.8" font-family="Times New Roman,serif" font-size="14.00">conv2d_4</text>
<polyline fill="none" stroke="black" points="114,-913.5 114,-959.5 "/>
<text text-anchor="middle" x="146" y="-932.8" font-family="Times New Roman,serif" font-size="14.00">Conv2D</text>
<polyline fill="none" stroke="black" points="178,-913.5 178,-959.5 "/>
<text text-anchor="middle" x="206" y="-944.3" font-family="Times New Roman,serif" font-size="14.00">input:</text>
<polyline fill="none" stroke="black" points="178,-936.5 234,-936.5 "/>
<text text-anchor="middle" x="206" y="-921.3" font-family="Times New Roman,serif" font-size="14.00">output:</text>
<polyline fill="none" stroke="black" points="234,-913.5 234,-959.5 "/>
<text text-anchor="middle" x="296.5" y="-944.3" font-family="Times New Roman,serif" font-size="14.00">(None, 28, 28, 128)</text>
<polyline fill="none" stroke="black" points="234,-936.5 359,-936.5 "/>
<text text-anchor="middle" x="296.5" y="-921.3" font-family="Times New Roman,serif" font-size="14.00">(None, 28, 28, 256)</text>
</g>
<!-- 2423744962176&#45;&gt;2423745028448 -->
<g id="edge7" class="edge">
<title>2423744962176&#45;&gt;2423745028448</title>
<path fill="none" stroke="black" d="M200,-996.37C200,-988.15 200,-978.66 200,-969.73"/>
<polygon fill="black" stroke="black" points="203.5,-969.61 200,-959.61 196.5,-969.61 203.5,-969.61"/>
</g>
<!-- 2423745030992 -->
<g id="node9" class="node">
<title>2423745030992</title>
<polygon fill="none" stroke="black" points="41,-830.5 41,-876.5 359,-876.5 359,-830.5 41,-830.5"/>
<text text-anchor="middle" x="77.5" y="-849.8" font-family="Times New Roman,serif" font-size="14.00">conv2d_5</text>
<polyline fill="none" stroke="black" points="114,-830.5 114,-876.5 "/>
<text text-anchor="middle" x="146" y="-849.8" font-family="Times New Roman,serif" font-size="14.00">Conv2D</text>
<polyline fill="none" stroke="black" points="178,-830.5 178,-876.5 "/>
<text text-anchor="middle" x="206" y="-861.3" font-family="Times New Roman,serif" font-size="14.00">input:</text>
<polyline fill="none" stroke="black" points="178,-853.5 234,-853.5 "/>
<text text-anchor="middle" x="206" y="-838.3" font-family="Times New Roman,serif" font-size="14.00">output:</text>
<polyline fill="none" stroke="black" points="234,-830.5 234,-876.5 "/>
<text text-anchor="middle" x="296.5" y="-861.3" font-family="Times New Roman,serif" font-size="14.00">(None, 28, 28, 256)</text>
<polyline fill="none" stroke="black" points="234,-853.5 359,-853.5 "/>
<text text-anchor="middle" x="296.5" y="-838.3" font-family="Times New Roman,serif" font-size="14.00">(None, 28, 28, 256)</text>
</g>
<!-- 2423745028448&#45;&gt;2423745030992 -->
<g id="edge8" class="edge">
<title>2423745028448&#45;&gt;2423745030992</title>
<path fill="none" stroke="black" d="M200,-913.37C200,-905.15 200,-895.66 200,-886.73"/>
<polygon fill="black" stroke="black" points="203.5,-886.61 200,-876.61 196.5,-886.61 203.5,-886.61"/>
</g>
<!-- 2423745092672 -->
<g id="node10" class="node">
<title>2423745092672</title>
<polygon fill="none" stroke="black" points="41,-747.5 41,-793.5 359,-793.5 359,-747.5 41,-747.5"/>
<text text-anchor="middle" x="77.5" y="-766.8" font-family="Times New Roman,serif" font-size="14.00">conv2d_6</text>
<polyline fill="none" stroke="black" points="114,-747.5 114,-793.5 "/>
<text text-anchor="middle" x="146" y="-766.8" font-family="Times New Roman,serif" font-size="14.00">Conv2D</text>
<polyline fill="none" stroke="black" points="178,-747.5 178,-793.5 "/>
<text text-anchor="middle" x="206" y="-778.3" font-family="Times New Roman,serif" font-size="14.00">input:</text>
<polyline fill="none" stroke="black" points="178,-770.5 234,-770.5 "/>
<text text-anchor="middle" x="206" y="-755.3" font-family="Times New Roman,serif" font-size="14.00">output:</text>
<polyline fill="none" stroke="black" points="234,-747.5 234,-793.5 "/>
<text text-anchor="middle" x="296.5" y="-778.3" font-family="Times New Roman,serif" font-size="14.00">(None, 28, 28, 256)</text>
<polyline fill="none" stroke="black" points="234,-770.5 359,-770.5 "/>
<text text-anchor="middle" x="296.5" y="-755.3" font-family="Times New Roman,serif" font-size="14.00">(None, 28, 28, 256)</text>
</g>
<!-- 2423745030992&#45;&gt;2423745092672 -->
<g id="edge9" class="edge">
<title>2423745030992&#45;&gt;2423745092672</title>
<path fill="none" stroke="black" d="M200,-830.37C200,-822.15 200,-812.66 200,-803.73"/>
<polygon fill="black" stroke="black" points="203.5,-803.61 200,-793.61 196.5,-803.61 203.5,-803.61"/>
</g>
<!-- 2423745046704 -->
<g id="node11" class="node">
<title>2423745046704</title>
<polygon fill="none" stroke="black" points="0,-664.5 0,-710.5 400,-710.5 400,-664.5 0,-664.5"/>
<text text-anchor="middle" x="59" y="-683.8" font-family="Times New Roman,serif" font-size="14.00">max_pooling2d_2</text>
<polyline fill="none" stroke="black" points="118,-664.5 118,-710.5 "/>
<text text-anchor="middle" x="168.5" y="-683.8" font-family="Times New Roman,serif" font-size="14.00">MaxPooling2D</text>
<polyline fill="none" stroke="black" points="219,-664.5 219,-710.5 "/>
<text text-anchor="middle" x="247" y="-695.3" font-family="Times New Roman,serif" font-size="14.00">input:</text>
<polyline fill="none" stroke="black" points="219,-687.5 275,-687.5 "/>
<text text-anchor="middle" x="247" y="-672.3" font-family="Times New Roman,serif" font-size="14.00">output:</text>
<polyline fill="none" stroke="black" points="275,-664.5 275,-710.5 "/>
<text text-anchor="middle" x="337.5" y="-695.3" font-family="Times New Roman,serif" font-size="14.00">(None, 28, 28, 256)</text>
<polyline fill="none" stroke="black" points="275,-687.5 400,-687.5 "/>
<text text-anchor="middle" x="337.5" y="-672.3" font-family="Times New Roman,serif" font-size="14.00">(None, 14, 14, 256)</text>
</g>
<!-- 2423745092672&#45;&gt;2423745046704 -->
<g id="edge10" class="edge">
<title>2423745092672&#45;&gt;2423745046704</title>
<path fill="none" stroke="black" d="M200,-747.37C200,-739.15 200,-729.66 200,-720.73"/>
<polygon fill="black" stroke="black" points="203.5,-720.61 200,-710.61 196.5,-720.61 203.5,-720.61"/>
</g>
<!-- 2423745175712 -->
<g id="node12" class="node">
<title>2423745175712</title>
<polygon fill="none" stroke="black" points="41,-581.5 41,-627.5 359,-627.5 359,-581.5 41,-581.5"/>
<text text-anchor="middle" x="77.5" y="-600.8" font-family="Times New Roman,serif" font-size="14.00">conv2d_7</text>
<polyline fill="none" stroke="black" points="114,-581.5 114,-627.5 "/>
<text text-anchor="middle" x="146" y="-600.8" font-family="Times New Roman,serif" font-size="14.00">Conv2D</text>
<polyline fill="none" stroke="black" points="178,-581.5 178,-627.5 "/>
<text text-anchor="middle" x="206" y="-612.3" font-family="Times New Roman,serif" font-size="14.00">input:</text>
<polyline fill="none" stroke="black" points="178,-604.5 234,-604.5 "/>
<text text-anchor="middle" x="206" y="-589.3" font-family="Times New Roman,serif" font-size="14.00">output:</text>
<polyline fill="none" stroke="black" points="234,-581.5 234,-627.5 "/>
<text text-anchor="middle" x="296.5" y="-612.3" font-family="Times New Roman,serif" font-size="14.00">(None, 14, 14, 256)</text>
<polyline fill="none" stroke="black" points="234,-604.5 359,-604.5 "/>
<text text-anchor="middle" x="296.5" y="-589.3" font-family="Times New Roman,serif" font-size="14.00">(None, 14, 14, 512)</text>
</g>
<!-- 2423745046704&#45;&gt;2423745175712 -->
<g id="edge11" class="edge">
<title>2423745046704&#45;&gt;2423745175712</title>
<path fill="none" stroke="black" d="M200,-664.37C200,-656.15 200,-646.66 200,-637.73"/>
<polygon fill="black" stroke="black" points="203.5,-637.61 200,-627.61 196.5,-637.61 203.5,-637.61"/>
</g>
<!-- 2423745201152 -->
<g id="node13" class="node">
<title>2423745201152</title>
<polygon fill="none" stroke="black" points="41,-498.5 41,-544.5 359,-544.5 359,-498.5 41,-498.5"/>
<text text-anchor="middle" x="77.5" y="-517.8" font-family="Times New Roman,serif" font-size="14.00">conv2d_8</text>
<polyline fill="none" stroke="black" points="114,-498.5 114,-544.5 "/>
<text text-anchor="middle" x="146" y="-517.8" font-family="Times New Roman,serif" font-size="14.00">Conv2D</text>
<polyline fill="none" stroke="black" points="178,-498.5 178,-544.5 "/>
<text text-anchor="middle" x="206" y="-529.3" font-family="Times New Roman,serif" font-size="14.00">input:</text>
<polyline fill="none" stroke="black" points="178,-521.5 234,-521.5 "/>
<text text-anchor="middle" x="206" y="-506.3" font-family="Times New Roman,serif" font-size="14.00">output:</text>
<polyline fill="none" stroke="black" points="234,-498.5 234,-544.5 "/>
<text text-anchor="middle" x="296.5" y="-529.3" font-family="Times New Roman,serif" font-size="14.00">(None, 14, 14, 512)</text>
<polyline fill="none" stroke="black" points="234,-521.5 359,-521.5 "/>
<text text-anchor="middle" x="296.5" y="-506.3" font-family="Times New Roman,serif" font-size="14.00">(None, 14, 14, 512)</text>
</g>
<!-- 2423745175712&#45;&gt;2423745201152 -->
<g id="edge12" class="edge">
<title>2423745175712&#45;&gt;2423745201152</title>
<path fill="none" stroke="black" d="M200,-581.37C200,-573.15 200,-563.66 200,-554.73"/>
<polygon fill="black" stroke="black" points="203.5,-554.61 200,-544.61 196.5,-554.61 203.5,-554.61"/>
</g>
<!-- 2423745203792 -->
<g id="node14" class="node">
<title>2423745203792</title>
<polygon fill="none" stroke="black" points="41,-415.5 41,-461.5 359,-461.5 359,-415.5 41,-415.5"/>
<text text-anchor="middle" x="77.5" y="-434.8" font-family="Times New Roman,serif" font-size="14.00">conv2d_9</text>
<polyline fill="none" stroke="black" points="114,-415.5 114,-461.5 "/>
<text text-anchor="middle" x="146" y="-434.8" font-family="Times New Roman,serif" font-size="14.00">Conv2D</text>
<polyline fill="none" stroke="black" points="178,-415.5 178,-461.5 "/>
<text text-anchor="middle" x="206" y="-446.3" font-family="Times New Roman,serif" font-size="14.00">input:</text>
<polyline fill="none" stroke="black" points="178,-438.5 234,-438.5 "/>
<text text-anchor="middle" x="206" y="-423.3" font-family="Times New Roman,serif" font-size="14.00">output:</text>
<polyline fill="none" stroke="black" points="234,-415.5 234,-461.5 "/>
<text text-anchor="middle" x="296.5" y="-446.3" font-family="Times New Roman,serif" font-size="14.00">(None, 14, 14, 512)</text>
<polyline fill="none" stroke="black" points="234,-438.5 359,-438.5 "/>
<text text-anchor="middle" x="296.5" y="-423.3" font-family="Times New Roman,serif" font-size="14.00">(None, 14, 14, 512)</text>
</g>
<!-- 2423745201152&#45;&gt;2423745203792 -->
<g id="edge13" class="edge">
<title>2423745201152&#45;&gt;2423745203792</title>
<path fill="none" stroke="black" d="M200,-498.37C200,-490.15 200,-480.66 200,-471.73"/>
<polygon fill="black" stroke="black" points="203.5,-471.61 200,-461.61 196.5,-471.61 203.5,-471.61"/>
</g>
<!-- 2423745070224 -->
<g id="node15" class="node">
<title>2423745070224</title>
<polygon fill="none" stroke="black" points="0,-332.5 0,-378.5 400,-378.5 400,-332.5 0,-332.5"/>
<text text-anchor="middle" x="59" y="-351.8" font-family="Times New Roman,serif" font-size="14.00">max_pooling2d_3</text>
<polyline fill="none" stroke="black" points="118,-332.5 118,-378.5 "/>
<text text-anchor="middle" x="168.5" y="-351.8" font-family="Times New Roman,serif" font-size="14.00">MaxPooling2D</text>
<polyline fill="none" stroke="black" points="219,-332.5 219,-378.5 "/>
<text text-anchor="middle" x="247" y="-363.3" font-family="Times New Roman,serif" font-size="14.00">input:</text>
<polyline fill="none" stroke="black" points="219,-355.5 275,-355.5 "/>
<text text-anchor="middle" x="247" y="-340.3" font-family="Times New Roman,serif" font-size="14.00">output:</text>
<polyline fill="none" stroke="black" points="275,-332.5 275,-378.5 "/>
<text text-anchor="middle" x="337.5" y="-363.3" font-family="Times New Roman,serif" font-size="14.00">(None, 14, 14, 512)</text>
<polyline fill="none" stroke="black" points="275,-355.5 400,-355.5 "/>
<text text-anchor="middle" x="337.5" y="-340.3" font-family="Times New Roman,serif" font-size="14.00">(None, 7, 7, 512)</text>
</g>
<!-- 2423745203792&#45;&gt;2423745070224 -->
<g id="edge14" class="edge">
<title>2423745203792&#45;&gt;2423745070224</title>
<path fill="none" stroke="black" d="M200,-415.37C200,-407.15 200,-397.66 200,-388.73"/>
<polygon fill="black" stroke="black" points="203.5,-388.61 200,-378.61 196.5,-388.61 203.5,-388.61"/>
</g>
<!-- 2423744959872 -->
<g id="node16" class="node">
<title>2423744959872</title>
<polygon fill="none" stroke="black" points="64,-249.5 64,-295.5 336,-295.5 336,-249.5 64,-249.5"/>
<text text-anchor="middle" x="89" y="-268.8" font-family="Times New Roman,serif" font-size="14.00">flatten</text>
<polyline fill="none" stroke="black" points="114,-249.5 114,-295.5 "/>
<text text-anchor="middle" x="141" y="-268.8" font-family="Times New Roman,serif" font-size="14.00">Flatten</text>
<polyline fill="none" stroke="black" points="168,-249.5 168,-295.5 "/>
<text text-anchor="middle" x="196" y="-280.3" font-family="Times New Roman,serif" font-size="14.00">input:</text>
<polyline fill="none" stroke="black" points="168,-272.5 224,-272.5 "/>
<text text-anchor="middle" x="196" y="-257.3" font-family="Times New Roman,serif" font-size="14.00">output:</text>
<polyline fill="none" stroke="black" points="224,-249.5 224,-295.5 "/>
<text text-anchor="middle" x="280" y="-280.3" font-family="Times New Roman,serif" font-size="14.00">(None, 7, 7, 512)</text>
<polyline fill="none" stroke="black" points="224,-272.5 336,-272.5 "/>
<text text-anchor="middle" x="280" y="-257.3" font-family="Times New Roman,serif" font-size="14.00">(None, 25088)</text>
</g>
<!-- 2423745070224&#45;&gt;2423744959872 -->
<g id="edge15" class="edge">
<title>2423745070224&#45;&gt;2423744959872</title>
<path fill="none" stroke="black" d="M200,-332.37C200,-324.15 200,-314.66 200,-305.73"/>
<polygon fill="black" stroke="black" points="203.5,-305.61 200,-295.61 196.5,-305.61 203.5,-305.61"/>
</g>
<!-- 2423748545216 -->
<g id="node17" class="node">
<title>2423748545216</title>
<polygon fill="none" stroke="black" points="73.5,-166.5 73.5,-212.5 326.5,-212.5 326.5,-166.5 73.5,-166.5"/>
<text text-anchor="middle" x="98" y="-185.8" font-family="Times New Roman,serif" font-size="14.00">dense</text>
<polyline fill="none" stroke="black" points="122.5,-166.5 122.5,-212.5 "/>
<text text-anchor="middle" x="148" y="-185.8" font-family="Times New Roman,serif" font-size="14.00">Dense</text>
<polyline fill="none" stroke="black" points="173.5,-166.5 173.5,-212.5 "/>
<text text-anchor="middle" x="201.5" y="-197.3" font-family="Times New Roman,serif" font-size="14.00">input:</text>
<polyline fill="none" stroke="black" points="173.5,-189.5 229.5,-189.5 "/>
<text text-anchor="middle" x="201.5" y="-174.3" font-family="Times New Roman,serif" font-size="14.00">output:</text>
<polyline fill="none" stroke="black" points="229.5,-166.5 229.5,-212.5 "/>
<text text-anchor="middle" x="278" y="-197.3" font-family="Times New Roman,serif" font-size="14.00">(None, 25088)</text>
<polyline fill="none" stroke="black" points="229.5,-189.5 326.5,-189.5 "/>
<text text-anchor="middle" x="278" y="-174.3" font-family="Times New Roman,serif" font-size="14.00">(None, 4096)</text>
</g>
<!-- 2423744959872&#45;&gt;2423748545216 -->
<g id="edge16" class="edge">
<title>2423744959872&#45;&gt;2423748545216</title>
<path fill="none" stroke="black" d="M200,-249.37C200,-241.15 200,-231.66 200,-222.73"/>
<polygon fill="black" stroke="black" points="203.5,-222.61 200,-212.61 196.5,-222.61 203.5,-222.61"/>
</g>
<!-- 2423748594368 -->
<g id="node18" class="node">
<title>2423748594368</title>
<polygon fill="none" stroke="black" points="70,-83.5 70,-129.5 330,-129.5 330,-83.5 70,-83.5"/>
<text text-anchor="middle" x="101.5" y="-102.8" font-family="Times New Roman,serif" font-size="14.00">dense_1</text>
<polyline fill="none" stroke="black" points="133,-83.5 133,-129.5 "/>
<text text-anchor="middle" x="158.5" y="-102.8" font-family="Times New Roman,serif" font-size="14.00">Dense</text>
<polyline fill="none" stroke="black" points="184,-83.5 184,-129.5 "/>
<text text-anchor="middle" x="212" y="-114.3" font-family="Times New Roman,serif" font-size="14.00">input:</text>
<polyline fill="none" stroke="black" points="184,-106.5 240,-106.5 "/>
<text text-anchor="middle" x="212" y="-91.3" font-family="Times New Roman,serif" font-size="14.00">output:</text>
<polyline fill="none" stroke="black" points="240,-83.5 240,-129.5 "/>
<text text-anchor="middle" x="285" y="-114.3" font-family="Times New Roman,serif" font-size="14.00">(None, 4096)</text>
<polyline fill="none" stroke="black" points="240,-106.5 330,-106.5 "/>
<text text-anchor="middle" x="285" y="-91.3" font-family="Times New Roman,serif" font-size="14.00">(None, 4096)</text>
</g>
<!-- 2423748545216&#45;&gt;2423748594368 -->
<g id="edge17" class="edge">
<title>2423748545216&#45;&gt;2423748594368</title>
<path fill="none" stroke="black" d="M200,-166.37C200,-158.15 200,-148.66 200,-139.73"/>
<polygon fill="black" stroke="black" points="203.5,-139.61 200,-129.61 196.5,-139.61 203.5,-139.61"/>
</g>
<!-- 2423748625840 -->
<g id="node19" class="node">
<title>2423748625840</title>
<polygon fill="none" stroke="black" points="70,-0.5 70,-46.5 330,-46.5 330,-0.5 70,-0.5"/>
<text text-anchor="middle" x="101.5" y="-19.8" font-family="Times New Roman,serif" font-size="14.00">dense_2</text>
<polyline fill="none" stroke="black" points="133,-0.5 133,-46.5 "/>
<text text-anchor="middle" x="158.5" y="-19.8" font-family="Times New Roman,serif" font-size="14.00">Dense</text>
<polyline fill="none" stroke="black" points="184,-0.5 184,-46.5 "/>
<text text-anchor="middle" x="212" y="-31.3" font-family="Times New Roman,serif" font-size="14.00">input:</text>
<polyline fill="none" stroke="black" points="184,-23.5 240,-23.5 "/>
<text text-anchor="middle" x="212" y="-8.3" font-family="Times New Roman,serif" font-size="14.00">output:</text>
<polyline fill="none" stroke="black" points="240,-0.5 240,-46.5 "/>
<text text-anchor="middle" x="285" y="-31.3" font-family="Times New Roman,serif" font-size="14.00">(None, 4096)</text>
<polyline fill="none" stroke="black" points="240,-23.5 330,-23.5 "/>
<text text-anchor="middle" x="285" y="-8.3" font-family="Times New Roman,serif" font-size="14.00">(None, 1)</text>
</g>
<!-- 2423748594368&#45;&gt;2423748625840 -->
<g id="edge18" class="edge">
<title>2423748594368&#45;&gt;2423748625840</title>
<path fill="none" stroke="black" d="M200,-83.37C200,-75.15 200,-65.66 200,-56.73"/>
<polygon fill="black" stroke="black" points="203.5,-56.61 200,-46.61 196.5,-56.61 203.5,-56.61"/>
</g>
</g>
</svg>
